<?xml version="1.0" standalone="no"?>
<!DOCTYPE svg PUBLIC "-//W3C//DTD SVG 20010904//EN"
 "http://www.w3.org/TR/2001/REC-SVG-20010904/DTD/svg10.dtd">
<svg version="1.0" xmlns="http://www.w3.org/2000/svg"
 width="700.000000pt" height="700.000000pt" viewBox="0 0 700.000000 700.000000"
 preserveAspectRatio="xMidYMid meet">
<metadata>
Created by potrace 1.11, written by Peter Selinger 2001-2013
</metadata>
<g transform="translate(0.000000,700.000000) scale(0.100000,-0.100000)"
fill="#000000" stroke="none">
<path d="M610 3480 l0 -3140 695 0 695 0 0 3140 0 3140 -695 0 -695 0 0 -3140z"/>
<path d="M2690 3480 l0 -3140 695 0 695 0 0 1270 0 1270 685 0 685 0 0 695 0
695 -680 0 c-536 0 -681 3 -684 13 -3 6 -7 222 -10 480 l-6 467 1165 0 1165 0
0 695 0 695 -1855 0 -1855 0 0 -3140z"/>
</g>
</svg>
