<svg version="1.1" id="Слой_1" xmlns="http://www.w3.org/2000/svg" xmlns:xlink="http://www.w3.org/1999/xlink" x="0px" y="0px"
viewBox="0 0 150 50" enable-background="new 0 0 150 50" xml:space="preserve">
<rect fill="#3EAB37" width="11.1" height="50"/>
<path fill="#010202" d="M60.6,50c-4.8,0-8.6-1.5-11.5-4.6c-2.9-3-4.3-7-4.3-12.1c0-5.5,1.5-9.7,4.5-12.8c3-3.1,7-4.6,12.1-4.6
c4.8,0,8.6,1.5,11.3,4.5c2.7,3,4.1,7.1,4.1,12.4c0,5.2-1.5,9.3-4.4,12.4C69.5,48.4,65.5,50,60.6,50z M61,20.4c-3.3,0-6,1.1-7.9,3.4
c-1.9,2.3-2.9,5.4-2.9,9.4c0,3.9,1,6.9,2.9,9.1s4.6,3.3,7.9,3.3c3.4,0,6-1.1,7.7-3.3c1.8-2.2,2.7-5.3,2.7-9.3c0-4.1-0.9-7.2-2.7-9.4
C66.9,21.5,64.4,20.4,61,20.4z"/>
<path fill="#010202" d="M107.9,50h-7.3L86.3,34.4h-0.1V50h-5.2V1.9h5.2v30.5h0.1l13.6-14.9h6.8L91.7,33.2L107.9,50z"/>
<path fill="#010202" d="M114.1,9.3c-0.9,0-1.7-0.3-2.4-0.9c-0.7-0.6-1-1.4-1-2.4c0-1,0.3-1.8,1-2.4c0.7-0.6,1.5-1,2.4-1
c0.9,0,1.8,0.3,2.4,1c0.7,0.6,1,1.5,1,2.4c0,0.9-0.3,1.7-1,2.4C115.9,9,115.1,9.3,114.1,9.3z M116.7,50h-5.2V17.5h5.2V50z"/>
<path fill="#010202" d="M150,50h-5.2V31.5c0-6.9-2.5-10.3-7.5-10.3c-2.6,0-4.7,1-6.4,2.9s-2.6,4.4-2.6,7.4V50h-5.2V17.5h5.2v5.4h0.1
c2.5-4.1,6-6.1,10.7-6.1c3.6,0,6.3,1.2,8.1,3.4c1.9,2.3,2.8,5.6,2.8,9.9L150,50L150,50z"/>
<polygon fill="#3EAB37" points="16.6,0 16.6,50 27.6,50 27.6,29.8 38.4,29.8 38.4,18.7 27.6,18.7 27.5,11.1 46,11.1 46,0 "/>
</svg>
